/* XPM */
static char * background_xpm[] = {
"64 64 2 1",
" 	c #D1A9BF",
".	c #DCAEC1",
"                                ............................... ",
"                               ...............................  ",
"                              ...............................   ",
"                             ...............................    ",
"                            ...............................     ",
"                           ...............................      ",
"                          ...............................       ",
"                         ...............................        ",
"                        ...............................         ",
"                       ...............................          ",
"                      ...............................           ",
"                     ...............................            ",
"                    ...............................             ",
"                   ...............................              ",
"                  ...............................               ",
"                 ...............................                ",
"                ...............................                 ",
"               ...............................                  ",
"              ...............................                   ",
"             ...............................                    ",
"            ...............................                     ",
"           ...............................                      ",
"          ...............................                       ",
"         ...............................                        ",
"        ...............................                         ",
"       ...............................                          ",
"      ...............................                           ",
"     ...............................                            ",
"    ...............................                             ",
"   ...............................                              ",
"  ...............................                               ",
" ...............................                                ",
"...............................                                 ",
"..............................                                 .",
".............................                                 ..",
"............................                                 ...",
"...........................                                 ....",
"..........................                                 .....",
".........................                                 ......",
"........................                                 .......",
".......................                                 ........",
"......................                                 .........",
".....................                                 ..........",
"....................                                 ...........",
"...................                                 ............",
"..................                                 .............",
".................                                 ..............",
"................                                 ...............",
"...............                                 ................",
"..............                                 .................",
".............                                 ..................",
"............                                 ...................",
"...........                                 ....................",
"..........                                 .....................",
".........                                 ......................",
"........                                 .......................",
".......                                 ........................",
"......                                 .........................",
".....                                 ..........................",
"....                                 ...........................",
"...                                 ............................",
"..                                 .............................",
".                                 ..............................",
"                                 ..............................."};
