/* XPM */
static char *fcb0fb766afb42a0b6585e1d936f8831F7d7jFkRGNjXZ2Pg[] = {
/* columns rows colors chars-per-pixel */
"16 16 5 1 ",
"  c None",
". c #1B1B1B",
"X c #F2741B",
"o c #FBC41B",
"O c #FFF21B",
/* pixels */
"                ",
"                ",
"                ",
"     ......     ",
"    .OOOOOO.    ",
"   .OOoooooX.   ",
"   .OooOOooX.   ",
"   .OoOooXoX.   ",
"   .OoOooXoX.   ",
"   .OooXXooX.   ",
"   .OoooooXX.   ",
"    .XXXXXX.    ",
"     ......     ",
"                ",
"                ",
"                "
};
