/* XPM */
static char * end_xpm[] = {
"32 32 138 2",
"  	c #DCAEC1",
". 	c #D1A9BF",
"+ 	c #000000",
"@ 	c #845D2A",
"# 	c #B1A352",
"$ 	c #B9B068",
"% 	c #BCB796",
"& 	c #BDB89D",
"* 	c #C0BEBA",
"= 	c #A2A1A0",
"- 	c #B9B16D",
"; 	c #A18330",
"> 	c #76532B",
", 	c #AB9734",
"' 	c #C1A134",
") 	c #D1A52F",
"! 	c #D7AF54",
"~ 	c #D8B159",
"{ 	c #C8AD5C",
"] 	c #BCB372",
"^ 	c #8C865A",
"/ 	c #AEA252",
"( 	c #BCB899",
"_ 	c #F3EDC5",
": 	c #CEBE58",
"< 	c #A0822D",
"[ 	c #79522A",
"} 	c #CE9C22",
"| 	c #DFC739",
"1 	c #EAD866",
"2 	c #EBD969",
"3 	c #EBD96F",
"4 	c #EAD96F",
"5 	c #E1CF56",
"6 	c #847631",
"7 	c #A79635",
"8 	c #CEBF5F",
"9 	c #E6DA97",
"0 	c #5A5131",
"a 	c #9B6925",
"b 	c #D8AE27",
"c 	c #ECDB68",
"d 	c #F2E57C",
"e 	c #F7EB89",
"f 	c #F7EC8A",
"g 	c #FBF5CB",
"h 	c #FBF5CD",
"i 	c #FDFAE5",
"j 	c #F6EB8B",
"k 	c #AB9A39",
"l 	c #E5D572",
"m 	c #E4D46B",
"n 	c #4E4630",
"o 	c #F3E57E",
"p 	c #F7EC8E",
"q 	c #F7ED91",
"r 	c #F6EB8C",
"s 	c #AB9B39",
"t 	c #E7DDB2",
"u 	c #E4D466",
"v 	c #ECDC6A",
"w 	c #F9F1AF",
"x 	c #F7EC8D",
"y 	c #F6EB88",
"z 	c #EADD76",
"A 	c #988B3E",
"B 	c #493D30",
"C 	c #9A6825",
"D 	c #E7D456",
"E 	c #F2E47B",
"F 	c #F1E47A",
"G 	c #F1E379",
"H 	c #A99835",
"I 	c #4F4A37",
"J 	c #998B3E",
"K 	c #E5D565",
"L 	c #CFA82D",
"M 	c #D29E21",
"N 	c #E0C832",
"O 	c #F6EA87",
"P 	c #F5EA86",
"Q 	c #E0C939",
"R 	c #A99832",
"S 	c #DCCA52",
"T 	c #E6D567",
"U 	c #B57A1F",
"V 	c #DCBC2D",
"W 	c #E1C936",
"X 	c #E1C939",
"Y 	c #DABB2E",
"Z 	c #BB9227",
"` 	c #865B28",
" .	c #9C6B25",
"..	c #9D6E26",
"+.	c #9C6E26",
"@.	c #9A6C26",
"#.	c #B5791F",
"$.	c #875F29",
"%.	c #7E7234",
"&.	c #E5D264",
"*.	c #E6D366",
"=.	c #898251",
"-.	c #B3A453",
";.	c #DDBB68",
">.	c #BEB999",
",.	c #9B6D26",
"'.	c #E2CE53",
").	c #ECDA6A",
"!.	c #E9D96F",
"~.	c #B1A55C",
"{.	c #887831",
"].	c #D1A630",
"^.	c #D8B835",
"/.	c #887934",
"(.	c #C7B439",
"_.	c #F5E883",
":.	c #F6EB87",
"<.	c #D3C567",
"[.	c #938231",
"}.	c #B2A552",
"|.	c #EBDA67",
"1.	c #EDDC6B",
"2.	c #BCB695",
"3.	c #BCB79C",
"4.	c #A5A39E",
"5.	c #CA9923",
"6.	c #D5AD2D",
"7.	c #D5AE31",
"8.	c #D5AF3C",
"9.	c #D6AF3E",
"0.	c #CFA93A",
"a.	c #535564",
"b.	c #BCBAB9",
"c.	c #5D5963",
"d.	c #5C5963",
"e.	c #B9BABB",
"f.	c #565767",
"g.	c #D6DFE2",
"                                                              . ",
"                                                            . . ",
"                                                          . . . ",
"                                                        . . . . ",
"                                                      . . . . . ",
"                                                    . . . . . . ",
"                                                  . . . . . . . ",
"                                                . . . . . . . . ",
"                                              . . . . . . . . . ",
"                + + + + + + + + + + + + + + + + . . . . . . . . ",
"            + + @ # $ $ $ $ $ $ $ $ $ % & & * = + + . . . . . . ",
"          + - ; > , ' ) ) ) ) ) ) ) ) ! ~ { ] ^ / ( + . . . . . ",
"        + _ : < [ } | 1 2 2 2 2 2 2 3 3 3 4 5 6 7 8 _ + . . . . ",
"        + 9 0   a b c d e f f f f f g h i i j k . 0 l + . . . . ",
"        + m n   a b c o f f f f f f p q i i r s . n t + . . . . ",
"        + u n   a b v f f f f f f f f f p w j s . n m + . . . . ",
"        + u n   a b v e f f f f f f f f f x y s . n u + . . . . ",
"        + z A B C b D E F E e f f f f f o e G H I J z + . . . . ",
"          + K L a M N D c G E O y y y y P v Q R S T + . . . . . ",
"            + + + U M V W X X X X X X X X Y Z + + + . . . . . . ",
"                  + `  ...+.@.#.#.@.+.....$.+ . . . . . . . . . ",
"                    + + + + %.&.*.=.+ + + + . . . . . . . . . . ",
"                  . . . . + -.;.;.>.+ . . . . . . . . . . . . . ",
"                . . . . + ,.'.2 ).!.~.+ . . . . . . . . . . . . ",
"              . . . . . . + {.].^./.+ . . . . . . . . . . . . . ",
"            . . . . + + + + (._.:.<.+ + + + . . . . . . . . . . ",
"          . . . . + [.}.$ <.|.1.P v <.2.3.4.+ . . . . . . . . . ",
"        . . . . + + 5.6.7.7.7.7.7.7.7.8.9.0.+ + . . . . . . . . ",
"      . . . + + + a.b.b.c.c.b.b.c.c.b.b.c.d.e.+ + + . . . . . . ",
"    . . . . + + + f.g.g.f.f.g.g.f.f.g.g.f.f.g.+ + + . . . . . . ",
"  . . . . . + + + + + + + + + + + + + + + + + + + + . . . . . . ",
". . . . . . + + + + + + + + + + + + + + + + + + + + . . . . . . "};
