/* XPM */
static char * frog_rigth_xpm[] = {
"32 32 11 1",
" 	c #DCAEC1",
".	c #D1A9BF",
"+	c #211F30",
"@	c #E44A4A",
"#	c #72A11D",
"$	c #CC3048",
"%	c #9C1B4D",
"&	c #28860F",
"*	c #076029",
"=	c #FFFFFF",
"-	c #A4CC42",
"                               .",
"                              ..",
"                             ...",
"                            ....",
"     +++   ++++++   ++++   .....",
"    +@@@+ +######+ +####+ ......",
"    +$$$%++++++++++++++++.......",
"     ++%+%$@@@$@$$$$@$@@@+......",
"    +$%++++%%%$%$$$$%$%%++......",
"    +@$+%%$$$$$$$$$$$$$$$+......",
"    +@$+++++++++++++++++++......",
"    +@++&&&&*====*&*====*&+.....",
"     ++&####&****&#&****&#+.....",
"      +###################+.....",
"      +#####************##+.....",
"      +####&############&#+.....",
"      +#########&&&&&#####+.....",
"       +&###############&+......",
"        +#############&&+.......",
"        +&##&+########++........",
"         +####+------##+........",
"         +&&&&+-------#+........",
"         +*+++--------#+........",
"        +&###---------##+.......",
"       .+&####-------####+......",
"      .+&###&++++++++&###+......",
"     ..+&&&&+........+&&&+......",
"    ....++++..........+++.......",
"   .............................",
"  ..............................",
" ...............................",
"................................"};
