/* XPM */
static char *_d9420afb05e487aa26239cd78410a5dSIAQOEc8szVII4ju[] = {
/* columns rows colors chars-per-pixel */
"14 13 5 1 ",
"  c None",
". c #161320",
"X c #6DA200",
"o c #BAD200",
"O c #F3F1E2",
/* pixels */
"  ..........  ",
"  .OOOXXXXX.  ",
"  .OooooooX.  ",
"  .Xo..ooo..  ",
"  .Xo..ooo..  ",
"  .XooooooX.  ",
"  .X.o.o.o..  ",
"  ...o...o..  ",
" ............ ",
"..X....o...X..",
".XXo.o.o.o.XX.",
".XXXXXXXXXXXX.",
".............."
};
